<?xml version="1.0" encoding="UTF-8"?>
<svg width="615px" height="575px" viewBox="0 0 615 575" version="1.1" xmlns="http://www.w3.org/2000/svg" xmlns:xlink="http://www.w3.org/1999/xlink">
    <!-- Generator: Sketch 57.1 (83088) - https://sketch.com -->
    <title>Logo with Vue Blue Circle</title>
    <desc>Created with Sketch.</desc>
    <defs>
        <linearGradient x1="50%" y1="0%" x2="50%" y2="95.4956789%" id="linearGradient-1">
            <stop stop-color="#41B883" offset="0%"></stop>
            <stop stop-color="#3B7D6F" offset="58.9579814%"></stop>
            <stop stop-color="#35495E" offset="100%"></stop>
        </linearGradient>
        <linearGradient x1="50%" y1="0%" x2="50%" y2="100%" id="linearGradient-2">
            <stop stop-color="#40B481" offset="0%"></stop>
            <stop stop-color="#35495E" offset="100%"></stop>
        </linearGradient>
    </defs>
    <g id="Logo-with-Vue-Blue-Circle" stroke="none" stroke-width="1" fill="none" fill-rule="evenodd">
        <circle id="Oval" fill="#35495E" cx="308" cy="288" r="275"></circle>
        <g id="Group-2" transform="translate(58.000000, 38.000000)">
            <circle id="Oval" stroke="url(#linearGradient-2)" fill="url(#linearGradient-1)" cx="250" cy="250" r="250"></circle>
            <path d="M413.834199,438.882638 C397.926525,452.668946 380.259989,464.484626 361.215586,473.949221 L266.851395,473.947896 C257.167043,473.947896 249.316325,466.097177 249.316325,456.412826 C249.316325,446.728474 257.167043,438.877756 266.851395,438.877756 Z M220.743604,438.877756 C230.427956,438.877756 238.278675,446.728474 238.278675,456.412826 C238.278675,466.097177 230.427956,473.947896 220.743604,473.947896 L138.420486,473.949221 C119.376083,464.484626 101.709548,452.668946 85.801873,438.882638 L220.743604,438.877756 Z M251.849709,378.757515 C261.534061,378.757515 269.38478,386.608233 269.38478,396.292585 C269.38478,405.976937 261.534061,413.827655 251.849709,413.827655 L155.471471,413.827655 C145.787119,413.827655 137.9364,405.976937 137.9364,396.292585 C137.9364,386.608233 145.787119,378.757515 155.471471,378.757515 L251.849709,378.757515 Z M464.457276,378.759282 C456.95925,391.196279 448.407864,402.928301 438.926423,413.832218 L297.9575,413.827655 C288.273148,413.827655 280.42243,405.976937 280.42243,396.292585 C280.42243,386.608233 288.273148,378.757515 297.9575,378.757515 Z M109.36368,378.757515 C119.048032,378.757515 126.89875,386.608233 126.89875,396.292585 C126.89875,405.976937 119.048032,413.827655 109.36368,413.827655 L60.7096493,413.832218 C51.2282079,402.928301 42.676822,391.196279 35.1787961,378.759282 L109.36368,378.757515 Z M490.618162,318.638972 C487.169006,330.728128 482.831535,342.443502 477.680713,353.710234 L355.152596,353.707415 C345.468244,353.707415 337.617526,345.856697 337.617526,336.172345 C337.617526,326.487993 345.468244,318.637275 355.152596,318.637275 Z M303.024269,318.637275 C312.708621,318.637275 320.559339,326.487993 320.559339,336.172345 C320.559339,345.746647 312.886033,353.528753 303.353698,353.704382 L303.024269,353.707415 L21.9553588,353.710234 C16.8045376,342.443502 12.4670659,330.728128 9.01791046,318.638972 L303.024269,318.637275 Z" id="Combined-Shape" fill="#FFFFFF"></path>
        </g>
    </g>
</svg>