<svg id="Layer_5" data-name="Layer 5" xmlns="http://www.w3.org/2000/svg" xmlns:xlink="http://www.w3.org/1999/xlink" width="759.23" height="661.17" viewBox="0 0 759.23 661.17"><defs><style>.cls-1{fill:#fff;}.cls-2{fill:url(#linear-gradient);stroke:url(#linear-gradient-2);}.cls-3{fill:#36b082;}</style><linearGradient id="linear-gradient" x1="-103.12" y1="935.86" x2="-103.12" y2="935.01" gradientTransform="matrix(500, 0, 0, -500, 51939.61, 467954.62)" gradientUnits="userSpaceOnUse"><stop offset="0" stop-color="#43b883"/><stop offset="0.59" stop-color="#3b7e70"/><stop offset="1" stop-color="#364a5e"/></linearGradient><linearGradient id="linear-gradient-2" x1="-103.12" y1="935.89" x2="-103.12" y2="934.94" gradientTransform="matrix(500, 0, 0, -500, 51939.61, 467954.62)" gradientUnits="userSpaceOnUse"><stop offset="0" stop-color="#41b481"/><stop offset="1" stop-color="#364a5e"/></linearGradient></defs><title>ETV-Logo</title><circle id="Oval" class="cls-1" cx="379.61" cy="246.15" r="246.15"/><g id="Group-2"><circle id="Oval-2" data-name="Oval" class="cls-2" cx="379.61" cy="246.15" r="223.77"/><path id="Combined-Shape" class="cls-1" d="M540.64,434.59A224.3,224.3,0,0,1,493.55,466H409.08a15.7,15.7,0,0,1,0-31.39Zm-172.83,0a15.7,15.7,0,1,1,0,31.39H294.13A224.37,224.37,0,0,1,247,434.59Zm27.85-53.82a15.7,15.7,0,0,1,0,31.39H309.39a15.7,15.7,0,1,1,0-31.39Zm190.3,0a223.78,223.78,0,0,1-22.86,31.4H436.93a15.7,15.7,0,1,1,0-31.39Zm-317.84,0a15.7,15.7,0,0,1,0,31.39H224.57a223.72,223.72,0,0,1-22.85-31.4ZM609.37,327a220.91,220.91,0,0,1-11.58,31.39H488.12a15.7,15.7,0,1,1,0-31.39Zm-167.91,0a15.7,15.7,0,0,1,.3,31.39H189.88A222.13,222.13,0,0,1,178.3,327Z" transform="translate(-14.39 -19.38)"/></g><path class="cls-1" d="M690,448.53c7.87,4.75,15.89,7.61,24.87,6.84,9.58-.83,14.52-7.59,11.88-16.85-1.15-4-3.6-7.76-5.6-11.56-.75-1.43-2.06-2.58-2.81-4a4.35,4.35,0,0,1,1.07-5.68c1.82-1.57,3.82-1.47,5.79-.21a4.76,4.76,0,0,1,1,.86c7.3,8.42,12.12,17.76,10.51,29.35-1.18,8.51-8.49,15.47-17.76,17.29-8.51,1.67-16.65.2-24.56-2.9-12.93-5.08-23.17-13.52-29.85-25.72a39.45,39.45,0,0,1-4.33-13.48c-1.65-12.38,6.12-22.35,18.46-24.32a43.85,43.85,0,0,1,24.94,3.48c4.27,1.87,5.18,3.54,3.55,8.06-2.06,5.72-4.57,11.28-7.06,16.84C696.86,433.83,693.43,441.08,690,448.53Zm-8-5.95,15.1-32.52a26.8,26.8,0,0,0-19-1.74c-6.2,2.1-9.55,7.46-8.36,14C671.18,430.39,675.63,436.73,682,442.58Z" transform="translate(-14.39 -19.38)"/><path class="cls-1" d="M690.28,515.55c0,11.3-4,17.33-11,17.87a27.93,27.93,0,0,1-11.75-1.92c-10.39-4-18.6-11.23-26.18-19.15a158.46,158.46,0,0,1-22.94-30.29,19.46,19.46,0,0,1-1.53-3.23c-.83-2.35-.45-4.44,1.78-5.86s4.56-1,6.41,1.18a25.55,25.55,0,0,1,2.4,3.76c9.49,16,21.16,30,36.52,40.67a42.61,42.61,0,0,0,9.52,4.88c4.71,1.72,7.21-.3,7-5.36-.26-7-2.87-13.42-5.85-19.62a141.64,141.64,0,0,0-30.41-41.25,18.93,18.93,0,0,1-3-3.29,4.21,4.21,0,0,1,.25-5.39,4.5,4.5,0,0,1,5.27-1.37,8.75,8.75,0,0,1,3,1.83c16,15,29,32.16,36.94,52.77C688.81,507,689.58,512.71,690.28,515.55Z" transform="translate(-14.39 -19.38)"/><path class="cls-1" d="M627,553.89c-.9-2.32-1.8-4.65-2.71-7q-10.08-25.62-20.16-51.24a20.28,20.28,0,0,1-1.29-4.26,4.59,4.59,0,0,1,2.52-5.25c2.09-1,4.34-.44,5.91,1.72a18.29,18.29,0,0,1,2,4q14.28,36.23,28.47,72.49a11.85,11.85,0,0,1,1,5.18c-.42,4.51-4.64,6.73-8.48,4.34a127.23,127.23,0,0,1-10.43-7.69q-25.61-19.92-51.17-39.89a21.81,21.81,0,0,1-3-2.64c-1.62-1.87-2-4-.51-6.13a4.57,4.57,0,0,1,6.33-1.28,92.92,92.92,0,0,1,7.91,5.82q20,15.48,40,31a26.21,26.21,0,0,0,2.86,1.69Z" transform="translate(-14.39 -19.38)"/><path class="cls-3" d="M678.5,632.66c-2.52,1.24-3.89-.17-5-1.82a18.94,18.94,0,0,1-3.25-10.07c-.76-15,5-27.66,14.22-39,8.42-10.4,18.78-18.82,28.88-27.43a251.47,251.47,0,0,0,44.3-49.66c6-8.78,8.65-19,10.22-29.35.74-4.91-.2-9.8-1.7-14.54-.37-1.19-.65-2.41-1-3.61l1-.64a22.06,22.06,0,0,1,3.15,3.19,25.27,25.27,0,0,1,4.21,13c.8,17.34-3.1,33.35-12.83,48-11.11,16.71-24.77,30.94-39.86,44a370.15,370.15,0,0,0-27.27,25.86c-8.36,8.88-12.8,20.07-15,32C678,625.77,678.5,629.1,678.5,632.66Z" transform="translate(-14.39 -19.38)"/><path class="cls-3" d="M50.85,295a20.31,20.31,0,0,1,3.78,1.36q20.57,11.31,41.06,22.78a14.47,14.47,0,0,1,3.53,2.67,4.17,4.17,0,0,1,.45,5.71,4.64,4.64,0,0,1-5.5,1.91,16.6,16.6,0,0,1-2.85-1.29c-11-6-22-12-32.91-18.13-7.07-4-7.18-4-11.38,2.74Q35.75,331,24.31,349.14c-1.35,2.13-3.19,3.56-5.95,3.13-3.62-.56-5.16-4.69-2.95-8.5,2-3.47,4.31-6.79,6.46-10.19,7.35-11.57,14.73-23.13,22-34.74A7.3,7.3,0,0,1,50.85,295Z" transform="translate(-14.39 -19.38)"/><path class="cls-3" d="M735.37,303.61c-9.11,2.57-17.83,5-26.55,7.49-4.58,1.3-9.13,2.72-13.74,3.92-1.39.36-3.21.68-4.32.08a7.53,7.53,0,0,1-3.22-3.79,3.52,3.52,0,0,1,1.8-4.58,31.65,31.65,0,0,1,4.52-1.87q19.51-5.67,39.06-11.24c.85-.24,1.76-.31,2.64-.47,4.89-.9,7.39.44,8.93,5,4,11.71,7.86,23.44,11.81,35.15,1.29,3.81,2.76,7.56,4,11.38a28.79,28.79,0,0,1,1.45,6.5c.24,3.23-1,4.8-3.56,5.33a5,5,0,0,1-5.64-3.38c-1.24-3-2.29-6.14-3.34-9.24-4-11.86-8-23.73-12-35.59C736.71,306.78,736.05,305.31,735.37,303.61Z" transform="translate(-14.39 -19.38)"/><path class="cls-3" d="M749,400.54c-1.38,1.76-2.31,3.44-3.68,4.57-1.79,1.47-3.81.63-5.3-.71-2.1-1.9-4-4-5.9-6.13q-12.48-13.72-24.92-27.51c-8-8.84-16-17.67-23.94-26.57a10.61,10.61,0,0,1-2.15-3.83,3.68,3.68,0,0,1,1.9-4.58,7.49,7.49,0,0,1,4.51-.44,7.17,7.17,0,0,1,3.17,2.34c8.86,9.68,17.64,19.42,26.5,29.1,8.66,9.45,17.42,18.83,26.06,28.3A50,50,0,0,1,749,400.54Z" transform="translate(-14.39 -19.38)"/><path class="cls-3" d="M277.16,597.92c1.29.34,2.61.58,3.86,1q15.84,5.53,31.65,11.14a11.41,11.41,0,0,1,2.8,1.38,5.13,5.13,0,0,1-3.91,9.29,19.07,19.07,0,0,1-3-.92q-15.6-5.49-31.21-11a11.91,11.91,0,0,1-3.55-1.81c-1.67-1.38-2.78-3.13-1.85-5.49A5,5,0,0,1,277.16,597.92Z" transform="translate(-14.39 -19.38)"/><path class="cls-3" d="M543.57,592.8c-3.3.12-5.15-.84-5.8-3.1s-.59-4.5,1.7-6c3.51-2.25,7-4.46,10.57-6.66,5.94-3.69,11.88-7.39,17.85-11a19.18,19.18,0,0,1,4.38-2.16,4.62,4.62,0,0,1,5.72,2.21c1.25,2.16,1.2,4.32-.64,6.13a17.5,17.5,0,0,1-3.18,2.43q-13.49,8.33-27,16.57A24,24,0,0,1,543.57,592.8Z" transform="translate(-14.39 -19.38)"/><path class="cls-1" d="M237,586.33c-1.55,1-2.88,1.85-4.22,2.69-4.84,3-9.87,5.59-15.68,6.2-8.37.87-14.2-4.41-14.06-12.85.11-5.8,2.09-11.15,4.53-16.28,6-12.74,15-23.34,25.18-32.88a13.89,13.89,0,0,1,4.18-2.52,4,4,0,0,1,4.82,1.36,4,4,0,0,1,.6,5,21.38,21.38,0,0,1-3.49,4c-9.45,9.06-17.82,18.94-23.15,31a33.78,33.78,0,0,0-2.53,9.42c-.42,3.52,1.1,4.58,4.63,3.64a40.2,40.2,0,0,0,14.5-7.81,105.62,105.62,0,0,0,26.8-31,14.64,14.64,0,0,1,3-3.87,5.42,5.42,0,0,1,7-.33c2.16,1.83,2.23,4.17,1.17,6.53-2.07,4.63-4.14,9.27-6.45,13.79-10.12,19.86-21.43,39-35.47,56.38-8.2,10.16-17.07,19.66-28.14,26.73a54.08,54.08,0,0,1-12.93,6c-9.19,2.86-18-1.16-22.05-9.82A53.3,53.3,0,0,1,162,632a5,5,0,0,1,3.43-6,4.91,4.91,0,0,1,6,3.31c.61,1.67.78,3.5,1.32,5.2,2.37,7.32,7,9.62,14.22,7,7.75-2.85,14-8,19.76-13.66C218.33,616.47,228,603.54,236.8,590a8.35,8.35,0,0,0,.86-2C237.73,587.8,237.47,587.49,237,586.33Z" transform="translate(-14.39 -19.38)"/><path class="cls-1" d="M121.51,431.15c4.86.52,9.81.64,14.56,1.68a36.68,36.68,0,0,1,11.59,4.42c6.81,4.27,8.91,11.71,5.27,19.24A54,54,0,0,1,144,469.24c-8.79,9.56-19.81,16.26-31.06,22.5-6.91,3.82-14.06,7.24-21.11,10.82a11.53,11.53,0,0,1-2.51.94c-2.76.62-5.07-.37-6.1-2.52s-.28-4.53,2-6.25a11.55,11.55,0,0,1,2.36-1.24c14.71-6.4,28.67-14.13,41.26-24.1,4.19-3.31,7.82-7.33,11.65-11.08a13.66,13.66,0,0,0,1.81-2.55c4-6.27,2.77-10-4.2-12.23-8.56-2.77-17.36-2.22-26.19-1.89a39.75,39.75,0,0,0-22,7.57c-6.58,4.62-13.64,8.58-20.49,12.82-.25.16-.5.33-.76.48-3.71,2.16-6.7,1.9-8.31-.72s-.62-5.43,3-7.71q8.36-5.24,16.75-10.38,20-12.34,40-24.65a45.33,45.33,0,0,1,4.28-2.44c2.77-1.32,5.39-.71,6.71,1.43s.73,4.77-1.69,6.69c-1.51,1.2-3.25,2.12-4.87,3.19-1.18.78-2.33,1.61-3.5,2.42Z" transform="translate(-14.39 -19.38)"/><path class="cls-1" d="M61.21,378.1a43.22,43.22,0,0,0-13.86,9.29c-3.39,3.38-6.56,6.91-7.92,11.73-1.48,5.21-.28,9.41,4.09,12.67a16.74,16.74,0,0,1,2.73,2.29,4.41,4.41,0,0,1,.58,5.4,4.26,4.26,0,0,1-4.92,2.26,12.58,12.58,0,0,1-4-1.81c-8.83-6.11-11.47-16.78-6.73-27.06,3.55-7.68,9.28-13.44,16.16-18.17,11.79-8.1,24.79-12.37,39.14-12.15a34.6,34.6,0,0,1,17.54,4.7c9.36,5.63,12.69,15.19,9.08,25.5-2.46,7-7,12.46-12.49,17.19a65,65,0,0,1-19.24,11.27,11.82,11.82,0,0,1-2.58.73c-3.75.53-6-1.59-5.88-5.34a16.49,16.49,0,0,0-.27-5.27c-3.26-10.4-6.69-20.75-10.09-31.1A13.84,13.84,0,0,0,61.21,378.1Zm9.85-3.75L82.7,410c9.08-4.68,16.42-10,20.57-18.77,3.43-7.2,1.1-13.34-6.17-16.54C88.77,371,80.31,372,71.06,374.35Z" transform="translate(-14.39 -19.38)"/><path class="cls-1" d="M49.64,542.21c1-4.34,1.86-8.74,3.14-13,1-3.41,3.71-4.9,6.41-4.14,2.91.82,4.07,3.61,3.05,7.34a68.47,68.47,0,0,0-2.19,8.2c-.8,5.5,1.15,7.49,6.65,7.13,6.74-.43,12.66-3.39,18.49-6.41,18.15-9.41,34.28-21.73,49.49-35.24,9-8,17.54-16.65,26.3-25a20,20,0,0,1,3.42-2.83,4.72,4.72,0,0,1,6.55,6.23,12.05,12.05,0,0,1-2.38,3.23c-21,21.29-43.18,41.26-68.86,56.91-8,4.9-16.34,9.38-25.58,11.66a46.68,46.68,0,0,1-7.92,1.43C56.32,558.41,49.94,552.22,49.64,542.21Z" transform="translate(-14.39 -19.38)"/><path class="cls-1" d="M210,517.47c-.36,11.51-4.41,18.73-9.73,25.34-8.25,10.26-18.34,17.89-31.45,20.81a29.83,29.83,0,0,1-7.53.71c-11.37-.39-18.36-8.76-16.89-20.05,1.1-8.43,5-15.57,10.5-21.86,9.38-10.75,20.54-18.67,35.17-20.27C202,500.86,210.36,508.63,210,517.47Zm-47.4,37.38a70,70,0,0,0,7.79-1.82c8.81-3.11,15.86-8.68,21.8-15.81a33.24,33.24,0,0,0,7.69-15.43c1.06-5.75-1.58-9.35-7.44-9.66a20.34,20.34,0,0,0-7.46,1c-13.26,4.44-22.74,13.3-29,25.69a21.5,21.5,0,0,0-1.77,6C153.17,551.11,156.22,554.59,162.63,554.85Z" transform="translate(-14.39 -19.38)"/><path class="cls-1" d="M182.2,470.57c0,2.92-2.32,5.3-4.93,5.13a5.12,5.12,0,0,1-4.45-4.73,4.81,4.81,0,0,1,5.06-4.92A4.15,4.15,0,0,1,182.2,470.57Z" transform="translate(-14.39 -19.38)"/><path class="cls-1" d="M478.71,606.44c3.05,11.55,6.76,22.52,14.63,31.5,5,5.74,8.31,5.08,10.56-2.2,1.3-4.22,1.58-8.75,2.26-13.16.19-1.17,0-2.41.27-3.56a4.94,4.94,0,0,1,5.28-3.88c2.55.18,4.51,1.58,4.6,4.07.34,9.65-.32,19.2-6.36,27.33-4.69,6.3-12,7.41-18.68,3.17-4.91-3.11-8.43-7.53-11.4-12.42-8.53-14.06-12.52-29.56-14.19-45.73-1-9.56-1-19.12,2-28.38a28.93,28.93,0,0,1,4.24-8.27c4.46-6,11.6-7.46,17.84-3.35a40.82,40.82,0,0,1,9.36,8.82c6.08,7.71,9.57,16.78,12.39,26.11a17.88,17.88,0,0,1,.45,2.65c1.13,8.44-.07,10.12-8.4,11.91C495.38,602.81,487.24,604.59,478.71,606.44Zm-2.12-10.14,25.51-5.54c-1.6-4.32-2.57-8.12-4.35-11.51-2.82-5.36-5.69-10.84-9.43-15.56-4.7-5.92-8.26-5.08-10.59,2C474.48,575.54,475.23,585.6,476.59,596.3Z" transform="translate(-14.39 -19.38)"/><path class="cls-1" d="M423.11,602.5a45,45,0,0,1,3.14-4c5.69-5.66,13.51-6.16,19.86-1.24,4.71,3.64,8,8.45,10.57,13.73,6.24,12.79,9,26.5,10.25,40.55.35,3.86.44,7.75.5,11.63.07,5-1.64,7.38-5.06,7.44s-5.24-2.32-5.26-7.25c-.06-12.77-1.53-25.37-5.79-37.43a79.86,79.86,0,0,0-7.89-16.46c-4.76-7.38-9.09-6.87-12.88,1-4.41,9.15-5.41,18.73-3.88,28.77,1.35,8.85,2.1,17.79,3.11,26.69a18.58,18.58,0,0,1,.19,2.68,5,5,0,0,1-4.66,5.05,4.7,4.7,0,0,1-5.43-4.17c-.68-4.12-1.08-8.29-1.54-12.44q-4.74-42.74-9.44-85.47a17.17,17.17,0,0,1-.18-3.57,4.85,4.85,0,0,1,4.66-4.58c2.54-.12,4.41,1,5.1,3.48a36.59,36.59,0,0,1,.92,5.73c1,8.9,1.92,17.81,2.91,26.72A29.53,29.53,0,0,0,423.11,602.5Z" transform="translate(-14.39 -19.38)"/><path class="cls-1" d="M360,601.6c0-3.57.05-7.14.07-10.71l.23-8.95,1.06-13.26c5.4-2.77,5.93-2.68,9.47,1.59l0,6.28-.3,6.25V603l12,.44,6.25.24a4.84,4.84,0,0,1,4.41,4.23c0,.59,0,1.18,0,1.78-.75,3.41-3.16,4.29-6.28,4.18-5-.19-10-.33-15-.49-.57.26-1.65.55-1.64.78.09,1.8.4,3.6.64,5.4.19,3.16.39,6.32.58,9.48l.33,3.07.6,5.9.3,2.17.54,4.11.36,2.17c1.46,7.7,2.58,15.51,7.16,23,1.06-1.21,2.06-1.9,2.43-2.85,2-5.12,3.9-10.3,5.78-15.47.41-1.12.52-2.35,1-3.44a5.2,5.2,0,0,1,6.23-3.08,4.75,4.75,0,0,1,3.64,5.41,24.32,24.32,0,0,1-1.28,5.66c-1.86,5.18-3.69,10.39-5.95,15.4a21.31,21.31,0,0,1-4.76,6.41c-4.45,4.2-10.27,4.07-14.23-.57a25.52,25.52,0,0,1-5.31-9.18,213.3,213.3,0,0,1-5.52-24.83c-1.28-8.39-1.56-16.93-2.29-25.41-.11-1.3-.25-2.61-.43-4.42l-14.36-.45c-5-.14-7.29-1.76-7.26-5.25s2.34-5.1,7.37-5c2.68,0,5.37.14,8,.22,1.79.22,3.57.52,5.36.59C359.4,603.19,359.71,602.15,360,601.6Z" transform="translate(-14.39 -19.38)"/><path class="cls-1" d="M370.83,570.27c-3.54-4.27-4.07-4.36-9.47-1.59,1.37-3.26,2.63-4.1,5.48-3.7C369.44,565.36,370.41,566.65,370.83,570.27Z" transform="translate(-14.39 -19.38)"/></svg>